<svg width="725" height="461" viewBox="0 0 725 461" fill="none" xmlns="http://www.w3.org/2000/svg">
<circle cx="378.599" cy="230.122" r="217.2" transform="rotate(-3.51884 378.599 230.122)" fill="#F3EFE1"/>
<path d="M463.429 351.536C459.053 351.805 455.039 351.443 451.388 350.449C447.738 349.487 444.548 347.936 441.82 345.795C439.123 343.653 436.97 340.964 435.361 337.728C433.783 334.491 432.864 330.749 432.602 326.501C432.298 321.55 432.772 317 434.023 312.852C435.273 308.671 437.229 305.024 439.891 301.911C442.583 298.764 445.909 296.283 449.869 294.468C453.859 292.62 458.425 291.538 463.567 291.222C465.995 291.072 468.294 291.187 470.466 291.567C472.635 291.914 474.562 292.485 476.246 293.279C477.927 294.042 479.253 295.002 480.222 296.161C481.221 297.285 481.763 298.535 481.847 299.908C481.965 301.824 481.575 303.307 480.678 304.356C479.812 305.403 478.597 305.975 477.032 306.071C476.074 306.13 475.204 306.055 474.421 305.847C473.639 305.639 472.791 305.402 471.877 305.138C470.995 304.871 469.955 304.647 468.758 304.464C467.56 304.281 466.067 304.245 464.279 304.355C462.65 304.455 461.123 304.917 459.699 305.742C458.273 306.535 457.013 307.671 455.917 309.149C454.854 310.625 454.05 312.406 453.505 314.491C452.96 316.576 452.769 318.945 452.932 321.596C453.059 323.672 453.404 325.622 453.965 327.447C454.556 329.238 455.39 330.806 456.466 332.151C457.575 333.493 458.953 334.53 460.601 335.263C462.279 335.961 464.268 336.239 466.567 336.098C468.132 336.002 469.525 335.708 470.745 335.216C471.995 334.69 473.114 334.109 474.1 333.471C475.119 332.831 476.078 332.259 476.976 331.755C477.907 331.249 478.868 330.965 479.858 330.905C482.413 330.747 484.19 331.231 485.189 332.356C486.22 333.479 486.796 335.03 486.918 337.011C487.04 338.991 486.527 340.818 485.379 342.491C484.232 344.165 482.576 345.646 480.41 346.933C478.275 348.186 475.757 349.207 472.856 349.994C469.957 350.814 466.815 351.328 463.429 351.536ZM513.559 347.78C509.982 348 507.004 347.542 504.626 346.406C502.25 345.301 500.323 343.416 498.844 340.75C497.398 338.082 496.251 334.545 495.403 330.141C495.063 328.783 494.739 327.168 494.431 325.295C494.124 323.423 493.857 321.435 493.632 319.333C493.405 317.199 493.196 315.112 493.006 313.072C492.817 311.032 492.669 309.149 492.563 307.424C492.457 305.7 492.402 304.292 492.4 303.203C492.236 299.494 492.314 296.331 492.634 293.714C492.954 291.098 493.712 289.095 494.909 287.707C496.136 286.285 497.995 285.498 500.487 285.344C503.521 285.158 505.667 285.908 506.925 287.594C508.181 289.248 508.929 292.023 509.168 295.92C509.219 296.75 509.253 297.822 509.27 299.135C509.286 300.449 509.312 301.906 509.346 303.507C509.381 305.108 509.403 306.774 509.413 308.504C509.455 310.233 509.48 311.947 509.489 313.645C509.527 315.31 509.559 316.879 509.586 318.352C509.642 319.792 509.704 321.054 509.771 322.14C509.942 324.919 510.196 327.228 510.533 329.066C510.871 330.905 511.297 332.37 511.813 333.46C512.327 334.518 512.918 335.268 513.587 335.707C514.285 336.113 515.049 336.291 515.88 336.24C516.965 336.173 517.943 335.904 518.812 335.434C519.678 334.932 520.497 334.433 521.268 333.937C522.071 333.438 522.92 333.162 523.814 333.107C524.836 333.044 525.674 333.377 526.328 334.106C527.014 334.834 527.396 335.836 527.475 337.114C527.563 338.551 527.198 339.904 526.378 341.173C525.588 342.407 524.501 343.5 523.117 344.451C521.733 345.402 520.193 346.17 518.498 346.755C516.835 347.338 515.188 347.68 513.559 347.78ZM563.227 345.447C558.309 345.749 553.973 345.359 550.219 344.275C546.465 343.192 543.28 341.448 540.664 339.044C538.077 336.606 536.062 333.556 534.619 329.894C533.173 326.199 532.301 321.925 532.003 317.07C531.924 315.792 531.896 314.544 531.917 313.324C531.97 312.103 532.09 310.925 532.277 309.791C532.463 308.658 532.704 307.617 532.998 306.669C533.715 304.253 534.821 302.421 536.315 301.175C537.84 299.895 539.72 299.187 541.956 299.049C544.159 298.914 545.811 299.181 546.91 299.851C548.041 300.518 548.817 301.4 549.237 302.497C549.687 303.559 549.977 304.631 550.108 305.713C550.183 306.414 550.245 307.164 550.294 307.962C550.375 308.759 550.457 309.571 550.54 310.4C550.621 311.196 550.702 311.977 550.781 312.741C550.86 313.506 550.951 314.206 551.054 314.84C551.48 318.116 552.133 320.914 553.013 323.232C553.925 325.548 555.17 327.299 556.75 328.485C558.33 329.67 560.349 330.187 562.809 330.036C565.172 329.89 567.09 329.275 568.562 328.191C570.065 327.073 571.218 325.495 572.022 323.458C572.857 321.387 573.438 318.85 573.767 315.848C573.899 314.878 573.985 313.927 574.024 312.995C574.093 312.029 574.131 311.081 574.138 310.151C574.176 309.219 574.23 308.27 574.299 307.304C574.368 306.337 574.47 305.385 574.604 304.447C575.018 302.306 575.825 300.573 577.026 299.249C578.257 297.891 580.134 297.134 582.657 296.979C584.829 296.846 586.512 297.367 587.707 298.544C588.933 299.719 589.852 301.362 590.462 303.472C590.651 304.455 590.811 305.487 590.941 306.569C591.102 307.617 591.232 308.683 591.33 309.767C591.429 310.851 591.497 311.953 591.534 313.073C591.602 314.19 591.638 315.294 591.641 316.384C591.799 322.594 590.771 327.787 588.56 331.963C586.348 336.138 583.098 339.336 578.81 341.555C574.554 343.773 569.36 345.07 563.227 345.447ZM627.134 339.882C621.257 340.244 616.285 339.684 612.218 338.202C608.184 336.719 605.05 334.251 602.818 330.797C600.584 327.312 599.294 322.759 598.948 317.137C598.793 314.614 598.735 312.101 598.773 309.598C598.842 307.061 598.994 304.583 599.23 302.164C599.464 299.713 599.786 297.385 600.195 295.179C600.634 292.94 601.134 290.89 601.692 289.028C602.251 287.166 602.872 285.525 603.554 284.104C604.625 282.243 605.929 280.768 607.465 279.68C609.032 278.558 610.805 277.936 612.785 277.814C615.085 277.672 616.879 278.171 618.167 279.31C619.485 280.415 620.207 281.99 620.333 284.034C620.378 284.769 620.394 285.553 620.382 286.388C620.367 287.19 620.339 288.041 620.298 288.942C620.289 289.84 620.264 290.739 620.224 291.639C620.213 292.506 620.201 293.356 620.188 294.19C620.173 294.993 620.189 295.761 620.234 296.496C620.34 298.221 620.465 299.479 620.61 300.272C620.755 301.064 621.099 301.444 621.642 301.411C622.185 301.377 622.894 301.173 623.768 300.799C624.641 300.393 625.605 299.901 626.659 299.323C627.556 298.787 628.68 298.301 630.032 297.865C631.414 297.395 633.015 297.105 634.836 296.993C638.988 296.737 642.585 297.366 645.628 298.878C648.668 300.358 651.048 302.568 652.768 305.508C654.518 308.414 655.516 311.879 655.764 315.904C656.005 319.832 655.43 323.25 654.038 326.157C652.676 329.03 650.66 331.446 647.991 333.406C645.353 335.331 642.238 336.821 638.648 337.876C635.092 338.96 631.254 339.629 627.134 339.882ZM628.309 329.278C629.523 329.203 630.724 328.921 631.912 328.431C633.132 327.939 634.243 327.246 635.246 326.351C636.281 325.453 637.08 324.362 637.642 323.077C638.236 321.791 638.48 320.285 638.374 318.56C638.237 316.324 637.688 314.434 636.727 312.89C635.796 311.313 634.522 310.141 632.904 309.374C631.286 308.608 629.391 308.292 627.219 308.426C625.271 308.545 623.571 309.051 622.118 309.942C620.696 310.798 619.598 311.972 618.824 313.462C618.08 314.919 617.767 316.605 617.885 318.522C618.027 320.821 618.469 322.798 619.212 324.451C619.954 326.105 621.058 327.367 622.522 328.239C624.017 329.077 625.945 329.423 628.309 329.278Z" fill="#F29894"/>
<path d="M102.938 294.875C101.182 294.983 99.597 294.76 98.1843 294.205C96.8036 293.649 95.5401 292.653 94.3937 291.216C94.065 290.563 93.7164 289.847 93.3479 289.068C93.0094 288.256 92.6699 287.427 92.3294 286.582C91.9889 285.737 91.6175 284.911 91.2151 284.102C90.8107 283.261 90.3464 282.488 89.8221 281.783C89.2202 280.858 88.5522 280.162 87.8181 279.694C87.116 279.224 86.2001 278.928 85.0704 278.805C84.5834 278.707 83.8749 278.654 82.9447 278.647C82.0126 278.608 80.9856 278.591 79.8638 278.596C78.7739 278.599 77.7179 278.632 76.6958 278.695C75.1947 278.787 73.6485 278.93 72.0575 279.124C70.4983 279.316 69.1477 279.512 68.0058 279.71C66.9296 279.937 66.0999 280.26 65.5167 280.681C64.9334 281.101 64.4427 281.725 64.0446 282.551C63.6746 283.311 63.3134 284.215 62.961 285.262C62.6087 286.31 62.2423 287.39 61.8619 288.504C61.4815 289.617 61.1002 290.715 60.7178 291.796C59.9458 293.318 58.9475 294.55 57.723 295.491C56.4984 296.432 54.6884 296.976 52.2929 297.123C50.3446 297.243 48.681 297.041 47.3023 296.517C45.9574 296.022 44.9243 295.124 44.203 293.822C43.4798 292.488 43.0474 290.671 42.906 288.371C42.8039 286.71 42.8976 284.845 43.1871 282.775C43.4747 280.674 43.9 278.467 44.4633 276.156C45.0584 273.843 45.7354 271.558 46.4942 269.299C47.251 267.008 48.0297 264.812 48.8303 262.711C49.6308 260.61 50.3972 258.735 51.1294 257.087C51.8916 255.405 52.5457 254.051 53.0917 253.023C54.0677 251.168 55.2212 249.334 56.5525 247.52C57.8817 245.675 59.4125 243.978 61.1446 242.429C62.9088 240.878 64.8982 239.601 67.1128 238.599C69.3256 237.566 71.7894 236.965 74.5042 236.798C78.6564 236.543 82.5719 237.392 86.2508 239.346C89.9277 241.268 93.3183 244.009 96.4227 247.569C97.625 248.874 98.831 250.499 100.041 252.445C101.25 254.39 102.409 256.547 103.516 258.915C104.654 261.25 105.716 263.669 106.704 266.173C107.691 268.678 108.565 271.157 109.325 273.611C110.085 276.065 110.693 278.384 111.148 280.568C111.635 282.75 111.929 284.672 112.031 286.332C112.212 289.271 111.46 291.385 109.776 292.675C108.124 293.963 105.845 294.696 102.938 294.875ZM85.2707 267.203C85.8957 266.94 86.3063 266.578 86.5024 266.117C86.6965 265.624 86.7641 264.899 86.7051 263.941C86.656 263.142 86.4694 262.192 86.1451 261.09C85.8189 259.956 85.3949 258.795 84.8731 257.609C84.3493 256.391 83.7686 255.289 83.1308 254.302C82.238 252.818 81.2023 251.615 80.0235 250.694C78.8447 249.772 77.6325 249.35 76.3869 249.427C74.8218 249.523 73.4069 250.235 72.142 251.563C70.8752 252.859 69.8157 254.399 68.9636 256.183C68.6196 256.845 68.2665 257.62 67.9043 258.508C67.574 259.394 67.2607 260.295 66.9644 261.211C66.7 262.125 66.4815 263.004 66.309 263.848C66.1346 264.661 66.066 265.37 66.1033 265.977C66.1661 266.999 66.6425 267.707 67.5324 268.101C68.4522 268.462 69.6627 268.595 71.1639 268.503C73.5594 268.356 75.6504 268.211 77.4371 268.069C79.2237 267.927 80.7539 267.785 82.0276 267.643C83.3332 267.498 84.4142 267.352 85.2707 267.203ZM128.106 314.054C126.828 314.133 125.661 313.916 124.603 313.404C123.546 312.892 122.599 312.084 121.761 310.982C120.956 309.877 120.229 308.479 119.58 306.788C119.218 305.592 118.884 304.33 118.578 303.002C118.274 301.706 117.982 300.346 117.702 298.92C117.455 297.525 117.223 296.096 117.005 294.635C116.819 293.171 116.65 291.723 116.498 290.29C116.345 288.856 116.226 287.437 116.14 286.032C115.702 278.909 116.399 272.518 118.231 266.859C120.093 261.166 123.162 256.601 127.44 253.164C131.717 249.727 137.257 247.8 144.06 247.381C148.148 247.13 151.872 247.462 155.23 248.377C158.587 249.261 161.512 250.684 164.005 252.647C166.496 254.578 168.456 256.99 169.884 259.884C171.31 262.746 172.136 266.013 172.362 269.686C172.578 273.2 172.226 276.331 171.305 279.081C170.382 281.799 168.891 284.134 166.831 286.089C164.771 288.043 162.14 289.583 158.939 290.71C155.77 291.834 152.03 292.529 147.718 292.794C145.61 292.924 143.86 292.871 142.467 292.636C141.075 292.433 139.955 292.198 139.105 291.929C138.257 291.693 137.593 291.589 137.114 291.619C136.507 291.656 136.041 291.893 135.715 292.33C135.421 292.765 135.226 293.498 135.129 294.53C135.01 295.211 134.936 296.081 134.905 297.141C134.874 298.201 134.848 299.341 134.826 300.56C134.805 301.78 134.796 302.935 134.799 304.024C134.836 305.144 134.86 306.056 134.871 306.761C134.843 309.424 134.235 311.273 133.048 312.307C131.861 313.342 130.214 313.924 128.106 314.054ZM143.949 280.763C147.334 280.555 150.037 279.924 152.056 278.87C154.075 277.816 155.497 276.446 156.323 274.76C157.18 273.04 157.54 271.079 157.404 268.875C157.294 267.086 156.823 265.416 155.99 263.864C155.189 262.31 153.928 261.089 152.206 260.201C150.484 259.313 148.17 258.959 145.264 259.137C143.347 259.255 141.689 259.662 140.289 260.357C138.889 261.052 137.746 262.004 136.858 263.213C136.001 264.388 135.381 265.789 135 267.415C134.651 269.039 134.539 270.858 134.663 272.87C134.788 274.914 135.161 276.542 135.781 277.755C136.432 278.965 137.413 279.802 138.724 280.267C140.035 280.731 141.777 280.897 143.949 280.763ZM189.453 310.282C188.175 310.36 187.008 310.144 185.95 309.631C184.893 309.119 183.945 308.312 183.108 307.209C182.303 306.105 181.576 304.707 180.927 303.015C180.564 301.819 180.23 300.557 179.924 299.23C179.62 297.934 179.328 296.573 179.048 295.148C178.802 293.752 178.57 292.324 178.352 290.862C178.166 289.399 177.996 287.951 177.844 286.517C177.692 285.084 177.573 283.665 177.486 282.259C177.048 275.137 177.745 268.746 179.577 263.087C181.439 257.394 184.509 252.829 188.786 249.392C193.063 245.955 198.603 244.027 205.407 243.609C209.495 243.357 213.218 243.69 216.577 244.605C219.933 245.489 222.858 246.912 225.351 248.875C227.843 250.805 229.802 253.218 231.231 256.111C232.657 258.973 233.483 262.241 233.709 265.914C233.925 269.427 233.572 272.559 232.652 275.308C231.729 278.026 230.237 280.362 228.177 282.316C226.117 284.27 223.487 285.811 220.286 286.937C217.117 288.062 213.377 288.757 209.065 289.022C206.957 289.152 205.206 289.099 203.813 288.864C202.422 288.661 201.301 288.425 200.451 288.157C199.603 287.921 198.94 287.817 198.461 287.847C197.854 287.884 197.387 288.121 197.062 288.558C196.768 288.993 196.572 289.726 196.476 290.758C196.357 291.438 196.282 292.309 196.251 293.369C196.22 294.428 196.194 295.568 196.173 296.788C196.152 298.007 196.143 299.162 196.146 300.252C196.182 301.372 196.206 302.284 196.218 302.989C196.189 305.652 195.581 307.5 194.395 308.535C193.208 309.57 191.561 310.152 189.453 310.282ZM205.295 276.991C208.681 276.782 211.383 276.151 213.402 275.097C215.421 274.044 216.844 272.674 217.67 270.988C218.526 269.268 218.886 267.306 218.751 265.102C218.641 263.314 218.17 261.643 217.337 260.092C216.536 258.538 215.275 257.317 213.553 256.429C211.831 255.541 209.517 255.186 206.61 255.365C204.694 255.483 203.036 255.889 201.636 256.585C200.236 257.28 199.092 258.232 198.205 259.441C197.347 260.616 196.728 262.016 196.347 263.643C195.998 265.267 195.886 267.085 196.009 269.098C196.135 271.142 196.508 272.77 197.127 273.982C197.779 275.193 198.76 276.03 200.071 276.494C201.382 276.959 203.123 277.124 205.295 276.991ZM255.948 285.177C254.607 285.26 253.397 285.142 252.32 284.823C251.242 284.505 250.282 284.019 249.441 283.365C248.597 282.68 247.826 281.877 247.129 280.958C246.319 279.79 245.58 278.457 244.911 276.959C244.274 275.459 243.711 273.875 243.224 272.206C242.735 270.504 242.325 268.798 241.996 267.087C241.696 265.342 241.496 263.656 241.396 262.027C241.07 256.725 241.895 252.153 243.871 248.313C245.847 244.472 248.771 241.455 252.644 239.261C256.548 237.066 261.216 235.801 266.645 235.467C269.137 235.314 271.561 235.373 273.918 235.645C276.305 235.883 278.45 236.36 280.354 237.076C282.287 237.759 283.85 238.673 285.043 239.818C286.236 240.963 286.883 242.366 286.985 244.027C287.079 245.56 286.834 246.793 286.251 247.727C285.697 248.626 284.936 249.282 283.967 249.694C282.999 250.107 281.971 250.346 280.885 250.413C279.129 250.521 277.39 250.404 275.67 250.06C273.98 249.683 271.937 249.569 269.541 249.716C266.443 249.906 264.121 250.979 262.574 252.934C261.059 254.886 260.406 257.571 260.616 260.989C260.695 262.267 260.82 263.525 260.993 264.765C261.195 265.971 261.427 267.127 261.687 268.233C261.947 269.339 262.189 270.398 262.411 271.41C262.666 272.421 262.884 273.353 263.064 274.208C263.243 275.03 263.352 275.761 263.391 276.4C263.564 279.21 263.054 281.342 261.861 282.794C260.666 284.214 258.695 285.008 255.948 285.177ZM321.473 283.312C315.948 283.652 311.073 283.102 306.849 281.662C302.656 280.221 299.319 277.829 296.837 274.487C294.356 271.145 292.95 266.791 292.62 261.426C292.349 257.018 292.862 253.107 294.159 249.693C295.453 246.247 297.341 243.31 299.82 240.881C302.332 238.45 305.294 236.569 308.707 235.237C312.117 233.873 315.787 233.07 319.716 232.829C322.399 232.664 325.017 232.759 327.572 233.115C330.125 233.439 332.442 234.098 334.522 235.092C336.601 236.054 338.287 237.393 339.579 239.109C340.868 240.793 341.591 242.897 341.746 245.42C341.883 247.656 341.567 249.551 340.797 251.105C340.027 252.659 338.921 253.962 337.479 255.012C336.066 256.029 334.419 256.867 332.536 257.528C330.685 258.187 328.7 258.758 326.582 259.241C325.294 259.673 323.685 260.108 321.757 260.548C319.826 260.955 317.924 261.296 316.049 261.572C314.174 261.847 312.63 262.023 311.416 262.097C310.458 262.156 309.795 262.325 309.428 262.604C309.058 262.851 308.893 263.294 308.932 263.933C308.968 264.508 309.169 265.169 309.535 265.916C309.9 266.631 310.406 267.305 311.054 267.938C312.183 269.087 313.479 269.825 314.941 270.152C316.436 270.477 318.222 270.575 320.298 270.448C322.47 270.314 324.591 269.879 326.662 269.143C328.762 268.372 330.784 267.623 332.727 266.894C334.702 266.164 336.632 265.74 338.516 265.624C340.4 265.509 341.923 265.768 343.084 266.402C344.277 267.034 344.937 268.372 345.062 270.416C345.172 272.204 344.616 273.842 343.393 275.327C342.17 276.813 340.455 278.121 338.248 279.251C336.073 280.378 333.532 281.288 330.625 281.98C327.75 282.669 324.699 283.113 321.473 283.312ZM316.634 254.659C318.486 254.545 320.262 254.227 321.961 253.706C323.66 253.185 325.04 252.411 326.099 251.384C327.157 250.357 327.638 249.045 327.54 247.448C327.42 245.5 326.616 244.154 325.127 243.412C323.669 242.636 321.758 242.321 319.395 242.466C317.957 242.555 316.568 242.897 315.226 243.492C313.914 244.054 312.741 244.799 311.708 245.728C310.675 246.658 309.858 247.702 309.256 248.861C308.686 250.018 308.44 251.235 308.519 252.513C308.568 253.311 308.876 253.886 309.442 254.235C310.007 254.553 310.884 254.74 312.073 254.795C313.261 254.818 314.781 254.773 316.634 254.659ZM379.823 279.243C375.863 279.486 372.095 279.221 368.521 278.447C364.981 277.703 361.806 276.391 358.998 274.512C356.189 272.633 353.922 270.176 352.196 267.14C350.469 264.072 349.471 260.366 349.204 256.022C348.925 251.487 349.351 247.453 350.48 243.921C351.639 240.355 353.44 237.311 355.882 234.789C358.353 232.232 361.388 230.234 364.987 228.794C368.617 227.353 372.764 226.489 377.427 226.202C381.1 225.976 384.174 226.172 386.649 226.789C389.155 227.404 391.069 228.281 392.389 229.418C393.707 230.523 394.408 231.762 394.493 233.136C394.554 234.126 394.353 235.036 393.891 235.866C393.429 236.696 392.798 237.376 391.997 237.906C391.226 238.402 390.393 238.678 389.499 238.733C388.637 238.786 387.766 238.711 386.888 238.508C386.008 238.274 384.954 238.066 383.724 237.885C382.527 237.703 380.986 237.669 379.101 237.785C377.121 237.907 375.336 238.337 373.746 239.076C372.189 239.813 370.839 240.81 369.698 242.066C368.589 243.321 367.749 244.783 367.179 246.453C366.64 248.121 366.432 249.946 366.554 251.926C366.726 254.737 367.397 257.036 368.565 258.823C369.733 260.611 371.287 261.91 373.229 262.72C375.168 263.499 377.383 263.812 379.875 263.658C381.951 263.531 383.808 263.224 385.445 262.739C387.08 262.221 388.52 261.652 389.764 261.03C391.008 260.409 392.081 259.862 392.982 259.39C393.882 258.918 394.636 258.663 395.243 258.626C396.776 258.531 397.995 258.809 398.901 259.459C399.805 260.076 400.463 260.885 400.878 261.886C401.29 262.854 401.525 263.818 401.584 264.776C401.704 266.724 401.254 268.531 400.234 270.197C399.247 271.861 397.783 273.345 395.844 274.651C393.902 275.924 391.561 276.95 388.819 277.728C386.112 278.536 383.113 279.041 379.823 279.243ZM419.495 275.12C417.163 275.264 415.316 274.944 413.953 274.162C412.625 273.411 411.654 272.22 411.041 270.591C410.426 268.929 410.041 266.853 409.888 264.362C409.825 263.339 409.786 262.172 409.769 260.858C409.752 259.545 409.733 258.183 409.71 256.774C409.718 255.331 409.741 253.887 409.78 252.442C409.82 250.997 409.879 249.614 409.958 248.295C410.067 246.942 410.167 245.701 410.258 244.573C410.381 243.444 410.532 242.505 410.71 241.756C411.511 239.142 412.814 237.123 414.618 235.697C416.422 234.272 418.777 233.47 421.683 233.291C424.43 233.122 426.503 233.988 427.903 235.89C429.302 237.792 430.109 240.483 430.323 243.965C430.39 245.051 430.436 246.33 430.463 247.803C430.489 249.277 430.489 250.832 430.461 252.468C430.434 254.105 430.375 255.76 430.285 257.433C430.196 259.105 430.07 260.7 429.906 262.217C429.743 263.734 429.555 265.108 429.342 266.339C429.13 267.571 428.853 268.549 428.513 269.276C427.669 271.187 426.506 272.605 425.024 273.53C423.541 274.455 421.699 274.985 419.495 275.12ZM420.417 227.55C416.744 227.776 414.12 227.344 412.546 226.255C410.971 225.133 410.135 223.79 410.038 222.225C409.915 220.213 410.528 218.46 411.879 216.966C413.23 215.472 414.97 214.307 417.098 213.471C419.225 212.603 421.374 212.102 423.546 211.968C425.143 211.87 426.628 212.035 428.001 212.464C429.372 212.861 430.506 213.576 431.403 214.611C432.301 215.646 432.802 217.026 432.908 218.751C433.028 220.699 432.517 222.301 431.376 223.558C430.265 224.78 428.736 225.724 426.789 226.389C424.841 227.021 422.716 227.408 420.417 227.55ZM465.358 276.243C462.675 276.408 460.056 276.313 457.502 275.957C454.949 275.633 452.647 274.957 450.596 273.929C448.545 272.901 446.871 271.481 445.573 269.669C444.274 267.826 443.539 265.53 443.371 262.784C443.194 259.909 443.766 257.485 445.088 255.512C446.439 253.506 448.311 251.884 450.703 250.647C453.096 249.409 455.828 248.472 458.898 247.834C461.999 247.163 465.21 246.725 468.532 246.521C469.426 246.466 470.322 246.442 471.221 246.451C472.151 246.458 473.001 246.47 473.772 246.487C474.572 246.47 475.212 246.446 475.691 246.417C476.426 246.372 476.929 246.213 477.201 245.939C477.472 245.666 477.589 245.226 477.552 244.619C477.503 243.821 477.347 243.109 477.084 242.484C476.853 241.857 476.531 241.316 476.119 240.86C475.704 240.373 475.214 239.97 474.65 239.652C473.684 239.07 472.49 238.679 471.067 238.478C469.642 238.245 468.115 238.178 466.486 238.279C464.474 238.402 462.587 238.743 460.826 239.3C459.063 239.825 457.381 240.361 455.779 240.909C454.176 241.424 452.592 241.73 451.027 241.826C448.503 241.981 446.53 241.686 445.105 240.94C443.681 240.194 442.914 238.943 442.806 237.186C442.702 235.493 443.217 233.955 444.35 232.57C445.481 231.154 447.073 229.934 449.126 228.91C451.211 227.884 453.582 227.065 456.237 226.453C458.89 225.809 461.67 225.398 464.577 225.219C470.518 224.854 475.558 225.217 479.696 226.309C483.835 227.401 487.055 229.447 489.355 232.448C491.656 235.448 492.973 239.663 493.307 245.093C493.389 246.435 493.398 247.62 493.333 248.65C493.268 249.68 493.164 250.584 493.019 251.363C492.905 252.107 492.801 252.771 492.709 253.353C492.616 253.936 492.585 254.467 492.614 254.946C492.667 255.809 493.006 256.621 493.63 257.385C494.254 258.148 494.976 258.937 495.795 259.752C496.613 260.535 497.34 261.404 497.975 262.359C498.609 263.282 498.964 264.35 499.038 265.564C499.15 267.385 498.657 268.745 497.558 269.647C496.459 270.548 495.159 271.044 493.658 271.137C492.444 271.211 491.434 270.937 490.626 270.313C489.852 269.72 489.158 269.121 488.544 268.518C487.928 267.882 487.268 267.586 486.565 267.629C486.086 267.659 485.552 267.836 484.963 268.161C484.406 268.484 483.73 268.958 482.935 269.584C482.018 270.314 480.803 271.158 479.291 272.116C477.813 273.105 475.944 273.989 473.683 274.77C471.423 275.55 468.648 276.041 465.358 276.243ZM466.21 265.851C467.679 265.761 469.088 265.466 470.436 264.966C471.781 264.435 472.99 263.751 474.061 262.916C475.161 262.047 476.015 261.065 476.621 259.969C477.224 258.842 477.488 257.656 477.412 256.41C477.357 255.516 477.029 254.879 476.428 254.499C475.826 254.087 474.914 253.855 473.692 253.802C472.501 253.714 470.995 253.727 469.174 253.839C467.226 253.959 465.386 254.28 463.655 254.803C461.954 255.293 460.59 256.05 459.563 257.075C458.534 258.068 458.07 259.395 458.172 261.056C458.247 262.269 458.627 263.24 459.313 263.967C460.031 264.693 460.977 265.211 462.15 265.524C463.324 265.837 464.677 265.946 466.21 265.851ZM531.356 267.761C528.96 267.908 526.64 267.714 524.395 267.179C522.15 266.644 520.26 265.638 518.727 264.161C517.223 262.65 516.306 260.511 515.976 257.742C515.893 256.913 515.79 256.022 515.667 255.068C515.574 254.079 515.479 253.059 515.383 252.007C515.284 250.923 515.184 249.823 515.084 248.707C515.015 247.59 514.93 246.473 514.829 245.357C514.759 244.207 514.69 243.089 514.623 242.003C514.505 240.6 514.098 239.711 513.401 239.337C512.735 238.929 511.839 238.696 510.713 238.637C510.07 238.612 509.333 238.609 508.501 238.628C507.698 238.614 506.864 238.601 505.997 238.59C505.163 238.577 504.344 238.547 503.539 238.501C501.996 238.435 500.762 237.918 499.837 236.949C498.91 235.948 498.389 234.521 498.275 232.669C498.197 231.391 498.392 230.385 498.859 229.651C499.327 228.917 499.982 228.364 500.825 227.992C501.666 227.587 502.606 227.241 503.647 226.952C505.136 226.668 506.419 226.413 507.495 226.187C508.601 225.926 509.596 225.689 510.481 225.474C511.397 225.257 512.098 224.926 512.584 224.479C513.099 223.999 513.388 223.227 513.451 222.166C513.502 221.425 513.536 220.67 513.553 219.899C513.599 219.095 513.647 218.306 513.696 217.534C513.744 216.761 513.831 216.083 513.955 215.498C514.39 213.708 515.047 212.401 515.926 211.578C516.805 210.754 518.251 210.281 520.263 210.157C521.86 210.059 523.135 210.189 524.086 210.547C525.036 210.873 525.793 211.452 526.357 212.283C526.921 213.114 527.39 214.223 527.764 215.611C527.945 216.465 528.087 217.21 528.19 217.845C528.325 218.478 528.441 219.064 528.539 219.603C528.636 220.142 528.732 220.665 528.827 221.172C528.923 221.679 529.019 222.202 529.116 222.741C529.303 223.692 529.714 224.388 530.351 224.829C531.017 225.237 531.834 225.492 532.802 225.592C533.639 225.637 534.492 225.697 535.362 225.772C536.23 225.814 537.067 225.859 537.871 225.906C538.707 225.951 539.48 225.999 540.188 226.052C541.735 226.181 543.124 226.609 544.355 227.335C545.584 228.028 546.254 229.286 546.366 231.106C546.466 232.735 546.069 234.09 545.173 235.171C544.276 236.22 543.065 236.856 541.54 237.078C539.917 237.274 538.387 237.432 536.952 237.552C535.517 237.673 534.354 237.792 533.464 237.911C532.765 238.018 532.173 238.295 531.687 238.742C531.2 239.156 530.948 240.021 530.933 241.337C530.952 242.169 530.989 243.033 531.044 243.927C531.099 244.821 531.154 245.715 531.209 246.61C531.296 247.502 531.366 248.379 531.419 249.242C531.504 250.102 531.603 250.93 531.716 251.724C531.827 252.487 531.935 253.202 532.04 253.868C532.286 255.264 532.715 256.231 533.325 256.771C533.967 257.309 534.943 257.537 536.252 257.457C537.37 257.388 538.267 257.108 538.942 256.618C539.649 256.126 540.277 255.654 540.827 255.204C541.406 254.719 542.079 254.453 542.846 254.406C543.964 254.338 544.781 254.592 545.297 255.169C545.812 255.715 546.104 256.562 546.175 257.712C546.257 259.054 545.87 260.312 545.012 261.487C544.155 262.661 543 263.694 541.548 264.585C540.096 265.476 538.473 266.201 536.68 266.76C534.919 267.317 533.144 267.651 531.356 267.761ZM564.702 266.191C562.37 266.334 560.523 266.015 559.16 265.233C557.832 264.481 556.861 263.291 556.248 261.661C555.633 260 555.248 257.924 555.095 255.432C555.032 254.41 554.993 253.243 554.976 251.929C554.959 250.616 554.94 249.254 554.917 247.845C554.925 246.402 554.948 244.958 554.987 243.512C555.027 242.067 555.086 240.685 555.165 239.366C555.274 238.012 555.374 236.772 555.465 235.644C555.588 234.515 555.739 233.576 555.917 232.827C556.718 230.213 558.021 228.193 559.825 226.768C561.629 225.343 563.984 224.541 566.89 224.362C569.637 224.193 571.71 225.059 573.11 226.961C574.509 228.863 575.316 231.554 575.53 235.036C575.597 236.122 575.643 237.401 575.67 238.874C575.696 240.347 575.696 241.902 575.668 243.539C575.64 245.176 575.582 246.831 575.492 248.503C575.403 250.176 575.277 251.771 575.113 253.288C574.95 254.805 574.762 256.179 574.549 257.41C574.336 258.641 574.06 259.62 573.72 260.346C572.876 262.258 571.713 263.676 570.231 264.601C568.748 265.525 566.906 266.055 564.702 266.191ZM565.624 218.621C561.951 218.847 559.327 218.415 557.753 217.325C556.178 216.204 555.342 214.861 555.245 213.296C555.122 211.283 555.735 209.531 557.086 208.037C558.437 206.543 560.177 205.378 562.305 204.542C564.432 203.674 566.581 203.173 568.753 203.039C570.35 202.941 571.835 203.106 573.208 203.535C574.579 203.931 575.713 204.647 576.61 205.682C577.508 206.717 578.009 208.097 578.115 209.821C578.235 211.77 577.724 213.372 576.583 214.629C575.472 215.851 573.943 216.795 571.996 217.459C570.048 218.092 567.923 218.479 565.624 218.621ZM617.862 263.98C613.966 264.22 610.17 264.02 606.476 263.382C602.816 262.773 599.508 261.646 596.554 260C593.597 258.323 591.198 256.066 589.357 253.229C587.515 250.393 586.465 246.867 586.205 242.651C585.921 238.02 586.469 233.898 587.85 230.287C589.229 226.643 591.25 223.537 593.913 220.969C596.577 218.401 599.724 216.412 603.357 215.002C607.019 213.558 610.974 212.706 615.222 212.445C619.247 212.197 623.094 212.458 626.764 213.226C630.466 213.992 633.786 215.327 636.724 217.23C639.695 219.131 642.078 221.646 643.873 224.774C645.7 227.899 646.751 231.698 647.026 236.17C647.24 239.651 646.677 243.004 645.336 246.228C643.996 249.453 642.01 252.348 639.378 254.914C636.747 257.481 633.605 259.565 629.952 261.169C626.3 262.772 622.27 263.709 617.862 263.98ZM616.099 248.603C618.495 248.456 620.516 247.963 622.164 247.124C623.843 246.284 625.173 245.224 626.152 243.945C627.162 242.633 627.877 241.226 628.297 239.726C628.718 238.225 628.883 236.74 628.793 235.271C628.673 233.323 628.188 231.685 627.337 230.359C626.486 229.033 625.379 227.979 624.016 227.197C622.686 226.413 621.21 225.879 619.589 225.594C617.999 225.275 616.389 225.165 614.76 225.265C612.556 225.401 610.525 225.991 608.665 227.035C606.804 228.047 605.338 229.5 604.269 231.393C603.199 233.286 602.748 235.606 602.917 238.353C603.057 240.621 603.672 242.555 604.765 244.155C605.855 245.723 607.354 246.897 609.261 247.677C611.169 248.458 613.448 248.766 616.099 248.603ZM663.257 259.553C661.149 259.683 659.398 259.358 658.004 258.578C656.641 257.796 655.579 256.435 654.819 254.494C654.582 253.771 654.387 252.949 654.235 252.029C654.08 251.077 653.951 250.027 653.848 248.879C653.776 247.697 653.729 246.418 653.709 245.04C653.533 238.543 654.535 232.935 656.714 228.216C658.924 223.495 662.128 219.804 666.324 217.141C670.55 214.445 675.57 212.918 681.383 212.56C687.228 212.201 692.426 213.051 696.977 215.112C701.528 217.173 705.159 220.428 707.869 224.878C710.611 229.326 712.192 234.952 712.61 241.755C712.681 242.905 712.7 243.994 712.667 245.021C712.664 246.016 712.609 246.949 712.502 247.821C712.395 248.693 712.253 249.503 712.074 250.252C711.469 252.405 710.497 254.052 709.156 255.192C707.846 256.299 706.184 256.914 704.172 257.038C701.904 257.177 700.127 256.95 698.84 256.355C697.587 255.791 696.651 254.903 696.031 253.691C695.412 252.479 694.936 251.001 694.605 249.258C694.355 247.286 694.102 245.522 693.846 243.967C693.622 242.409 693.376 241.014 693.108 239.78C692.872 238.544 692.625 237.405 692.369 236.363C692.112 235.321 691.81 234.313 691.462 233.341C690.676 230.985 689.607 229.255 688.257 228.152C686.937 227.015 685.095 226.519 682.731 226.664C680.496 226.802 678.714 227.552 677.388 228.916C676.059 230.248 675.036 232.123 674.319 234.539C673.969 235.619 673.686 236.758 673.471 237.958C673.256 239.157 673.079 240.451 672.94 241.838C672.799 243.193 672.697 244.658 672.633 246.233C672.57 247.808 672.496 249.479 672.413 251.248C672.315 253.306 671.837 254.922 670.98 256.097C670.122 257.272 669.02 258.109 667.672 258.609C666.358 259.138 664.886 259.453 663.257 259.553Z" fill="#F29894"/>
<path d="M117.267 223.328C113.961 223.71 111.439 223.213 109.702 221.835C107.96 220.426 106.611 218.231 105.654 215.249C105.351 214.028 105.07 212.707 104.809 211.288C104.548 209.869 104.299 208.416 104.063 206.929C103.854 205.407 103.664 203.899 103.491 202.405C103.349 200.907 103.214 199.457 103.084 198.055C102.768 194.773 102.592 191.443 102.556 188.065C102.516 184.655 102.713 181.346 103.147 178.139C103.581 174.932 104.301 171.966 105.306 169.24C106.258 167.165 107.604 165.576 109.345 164.472C111.085 163.369 113.227 162.67 115.77 162.376C117.964 162.122 119.771 162.573 121.194 163.729C122.616 164.885 123.452 166.544 123.702 168.706C123.817 169.691 123.896 170.793 123.94 172.012C124.013 173.196 124.057 174.415 124.073 175.669C124.118 176.888 124.155 178.043 124.185 179.135C124.211 180.195 124.24 181.142 124.272 181.976C124.332 182.774 124.398 183.347 124.471 183.693C124.696 184.246 124.966 184.634 125.282 184.855C125.597 185.076 126.12 185.145 126.852 185.06C127.36 185.001 127.912 184.76 128.507 184.337C129.103 183.914 129.738 183.276 130.412 182.425C131.853 180.68 133.685 178.551 135.906 176.039C138.128 173.527 140.321 171.179 142.484 168.996C144.644 166.781 146.621 165.071 148.414 163.865C150.239 162.655 152.121 161.938 154.06 161.713C155.681 161.526 157.021 161.693 158.08 162.214C159.171 162.732 159.998 163.474 160.56 164.44C161.155 165.402 161.519 166.455 161.651 167.6C161.728 168.267 161.666 168.983 161.465 169.747C161.263 170.511 160.936 171.306 160.484 172.132C160.032 172.957 159.441 173.831 158.71 174.753C158.011 175.672 157.2 176.603 156.279 177.547C155.062 178.719 153.707 179.955 152.214 181.255C150.75 182.52 149.264 183.739 147.757 184.912C146.246 186.053 144.85 187.068 143.567 187.957C142.278 188.783 141.343 189.471 140.762 190.022C140.178 190.54 139.908 190.99 139.952 191.372C139.996 191.753 140.167 192.12 140.466 192.472C140.764 192.824 141.332 193.274 142.168 193.821C142.792 194.2 143.611 194.733 144.625 195.421C145.635 196.078 146.733 196.804 147.921 197.601C149.14 198.394 150.326 199.175 151.478 199.944C152.662 200.709 153.709 201.409 154.62 202.044C155.559 202.644 156.226 203.115 156.62 203.456C158.899 205.06 160.561 206.479 161.606 207.711C162.651 208.943 163.232 210.067 163.349 211.085C163.537 212.706 163.322 214.051 162.705 215.121C162.12 216.188 161.233 217.015 160.045 217.604C158.86 218.224 157.473 218.626 155.884 218.81C154.326 218.99 152.546 218.778 150.543 218.172C148.568 217.531 146.328 216.405 143.822 214.794C141.752 213.326 139.991 212.032 138.541 210.912C137.087 209.759 135.84 208.728 134.8 207.817C133.761 206.907 132.844 206.078 132.049 205.333C131.285 204.584 130.544 203.88 129.823 203.223C128.892 202.139 128.138 201.324 127.559 200.779C127.013 200.23 126.552 199.865 126.176 199.683C125.797 199.469 125.417 199.384 125.035 199.428C124.59 199.48 124.296 199.723 124.153 200.158C124.007 200.562 123.976 201.129 124.06 201.86C124.082 202.051 124.13 202.464 124.204 203.1C124.274 203.704 124.341 204.421 124.405 205.251C124.5 206.078 124.582 206.922 124.649 207.784C124.713 208.614 124.772 209.396 124.824 210.131C124.873 210.834 124.904 211.378 124.917 211.763C125.001 215.555 124.424 218.36 123.185 220.178C121.973 221.961 120.001 223.011 117.267 223.328ZM192.114 191.423C188.458 191.847 185.095 192.155 182.025 192.349C178.983 192.508 176.322 192.478 174.042 192.259C171.79 192.004 170.008 191.501 168.697 190.751C167.383 189.969 166.644 188.879 166.482 187.48C166.273 185.668 166.632 184.177 167.559 183.006C168.519 181.832 170.08 180.846 172.242 180.049C174.437 179.247 177.273 178.564 180.751 178.001C184.261 177.433 188.464 176.867 193.359 176.3C198.223 175.737 202.522 175.304 206.256 175.001C210.018 174.662 213.182 174.586 215.748 174.772C218.346 174.954 220.344 175.513 221.74 176.446C223.165 177.344 223.99 178.763 224.214 180.702C224.402 182.323 223.835 183.693 222.515 184.813C221.195 185.932 219.162 186.876 216.416 187.644C213.699 188.378 210.297 189.045 206.211 189.647C202.153 190.213 197.454 190.805 192.114 191.423ZM247.228 208.384C245.671 208.564 244.184 208.382 242.768 207.837C241.352 207.292 240.008 206.401 238.738 205.163C237.495 203.889 236.345 202.299 235.286 200.392C234.894 199.503 234.482 198.455 234.053 197.249C233.651 196.007 233.237 194.653 232.81 193.189C232.414 191.72 232.031 190.218 231.66 188.683C231.285 187.116 230.944 185.56 230.637 184.018C230.326 182.443 230.04 180.946 229.779 179.526C229.55 178.103 229.367 176.804 229.231 175.628C228.543 169.683 228.825 164.883 230.077 161.227C231.326 157.539 233.677 154.754 237.132 152.872C240.614 150.955 245.296 149.657 251.177 148.976C255.309 148.498 259.293 148.407 263.129 148.704C266.964 149.001 270.438 149.791 273.55 151.074C276.659 152.325 279.204 154.14 281.187 156.52C283.166 158.868 284.367 161.87 284.79 165.525C285.11 168.291 284.851 170.785 284.013 173.008C283.172 175.2 281.848 177.125 280.043 178.783C278.266 180.406 276.07 181.755 273.457 182.831C270.843 183.907 267.954 184.692 264.79 185.187C262.703 185.525 260.742 185.704 258.909 185.723C257.103 185.706 255.405 185.79 253.816 185.974C252.83 186.088 252.253 186.525 252.083 187.286C251.941 188.011 251.94 188.977 252.08 190.185C252.139 190.694 252.205 191.266 252.279 191.902C252.384 192.534 252.495 193.214 252.612 193.941C252.724 194.637 252.837 195.332 252.95 196.028C253.094 196.72 253.203 197.384 253.277 198.02C253.379 198.62 253.457 199.159 253.512 199.635C253.814 202.242 253.454 204.281 252.432 205.752C251.442 207.22 249.708 208.097 247.228 208.384ZM253.051 176.447C254.577 176.27 256.094 176.014 257.601 175.678C259.105 175.311 260.52 174.874 261.846 174.366C263.169 173.826 264.32 173.194 265.299 172.468C266.275 171.711 267.013 170.852 267.514 169.893C268.015 168.933 268.197 167.864 268.061 166.688C267.91 165.385 267.495 164.306 266.816 163.45C266.169 162.591 265.366 161.911 264.406 161.41C263.442 160.877 262.416 160.496 261.326 160.268C260.233 160.008 259.153 159.859 258.085 159.822C257.05 159.78 256.135 159.806 255.34 159.898C253.909 160.063 252.667 160.32 251.612 160.667C250.588 161.011 249.739 161.464 249.063 162.025C248.419 162.583 247.966 163.264 247.705 164.067C247.475 164.867 247.423 165.807 247.548 166.888C247.702 168.223 247.89 169.425 248.11 170.495C248.331 171.565 248.584 172.502 248.871 173.306C249.185 174.075 249.532 174.712 249.913 175.215C250.321 175.683 250.781 176.033 251.291 176.264C251.829 176.459 252.416 176.52 253.051 176.447ZM323.325 201.22C319.447 201.669 315.646 201.674 311.923 201.235C308.236 200.824 304.872 199.876 301.834 198.392C298.791 196.876 296.274 194.751 294.283 192.018C292.291 189.285 291.053 185.82 290.567 181.624C290.034 177.015 290.359 172.87 291.544 169.189C292.725 165.477 294.576 162.267 297.098 159.559C299.619 156.851 302.656 154.696 306.207 153.093C309.786 151.454 313.69 150.391 317.918 149.901C321.923 149.438 325.779 149.491 329.485 150.061C333.222 150.627 336.61 151.781 339.646 153.523C342.714 155.262 345.229 157.645 347.19 160.672C349.183 163.695 350.437 167.431 350.952 171.881C351.353 175.346 350.97 178.725 349.805 182.016C348.64 185.308 346.812 188.306 344.323 191.01C341.833 193.714 338.808 195.965 335.247 197.762C331.686 199.56 327.712 200.712 323.325 201.22ZM320.738 185.96C323.122 185.684 325.114 185.083 326.714 184.157C328.346 183.227 329.617 182.098 330.526 180.769C331.463 179.404 332.101 177.961 332.441 176.44C332.78 174.919 332.865 173.427 332.696 171.965C332.472 170.026 331.899 168.417 330.978 167.138C330.057 165.86 328.895 164.867 327.492 164.159C326.121 163.448 324.619 162.994 322.986 162.796C321.38 162.563 319.767 162.541 318.146 162.728C315.952 162.982 313.955 163.68 312.155 164.823C310.351 165.934 308.965 167.463 307.999 169.411C307.032 171.359 306.707 173.7 307.024 176.434C307.285 178.691 308.004 180.589 309.181 182.127C310.354 183.635 311.913 184.727 313.86 185.403C315.807 186.08 318.099 186.266 320.738 185.96ZM370.783 215.781C369.511 215.928 368.334 215.774 367.25 215.32C366.167 214.865 365.177 214.11 364.282 213.054C363.418 211.994 362.617 210.637 361.878 208.983C361.452 207.808 361.051 206.566 360.674 205.257C360.3 203.979 359.936 202.637 359.579 201.228C359.258 199.848 358.95 198.434 358.654 196.986C358.389 195.535 358.142 194.098 357.913 192.675C357.684 191.252 357.488 189.841 357.326 188.442C356.506 181.354 356.858 174.935 358.384 169.185C359.937 163.4 362.757 158.677 366.843 155.015C370.929 151.353 376.357 149.13 383.128 148.346C387.197 147.875 390.933 148.007 394.336 148.74C397.735 149.442 400.732 150.706 403.327 152.532C405.919 154.326 408.005 156.629 409.587 159.442C411.165 162.223 412.166 165.441 412.589 169.097C412.994 172.594 412.81 175.74 412.038 178.535C411.263 181.298 409.899 183.711 407.947 185.773C405.995 187.835 403.452 189.515 400.316 190.812C397.212 192.105 393.514 193 389.223 193.497C387.125 193.74 385.374 193.781 383.971 193.622C382.571 193.494 381.439 193.319 380.576 193.096C379.716 192.906 379.048 192.838 378.571 192.894C377.967 192.963 377.514 193.225 377.212 193.679C376.942 194.129 376.787 194.872 376.745 195.907C376.664 196.593 376.636 197.466 376.662 198.526C376.688 199.586 376.723 200.726 376.768 201.945C376.812 203.164 376.865 204.317 376.927 205.406C377.024 206.522 377.097 207.431 377.146 208.134C377.26 210.795 376.753 212.674 375.624 213.771C374.494 214.868 372.881 215.538 370.783 215.781ZM384.812 181.686C388.181 181.296 390.846 180.52 392.805 179.359C394.765 178.198 396.112 176.754 396.846 175.026C397.608 173.263 397.863 171.284 397.609 169.091C397.403 167.311 396.842 165.669 395.927 164.164C395.044 162.655 393.719 161.504 391.952 160.71C390.185 159.916 387.855 159.686 384.962 160.021C383.055 160.242 381.421 160.737 380.061 161.506C378.7 162.276 377.609 163.288 376.788 164.543C375.995 165.762 375.452 167.194 375.159 168.838C374.898 170.479 374.883 172.301 375.115 174.304C375.35 176.338 375.81 177.944 376.494 179.121C377.21 180.295 378.234 181.078 379.568 181.471C380.903 181.864 382.65 181.936 384.812 181.686Z" fill="#F29894"/>
</svg>
